<?xml version="1.0" encoding="UTF-8"?>
<svg width="64" height="64" viewBox="0 0 64 64" xmlns="http://www.w3.org/2000/svg">
  <circle cx="32" cy="32" r="32" fill="#2E7D32"/>
  <path d="M32,16 C36.42,16 40,19.58 40,24 C40,28.42 36.42,32 32,32 C27.58,32 24,28.42 24,24 C24,19.58 27.58,16 32,16 Z M32,18 C28.69,18 26,20.69 26,24 C26,27.31 28.69,30 32,30 C35.31,30 38,27.31 38,24 C38,20.69 35.31,18 32,18 Z" fill="#FFFFFF"/>
  <path d="M32,48 C32,48 24,40 24,30 C24,20 32,16 32,16 C32,16 40,20 40,30 C40,40 32,48 32,48 Z" fill="#4CAF50"/>
  <path d="M32,48 L32,32" stroke="#2E7D32" stroke-width="2" stroke-linecap="round"/>
</svg>
